<?xml version="1.0" encoding="UTF-8" standalone="no"?><svg xmlns="http://www.w3.org/2000/svg" xmlns:xlink="http://www.w3.org/1999/xlink" fill="#ffffff" height="339.5" preserveAspectRatio="xMidYMid meet" version="1" viewBox="86.4 86.1 339.6 339.5" width="339.6" zoomAndPan="magnify"><g id="change1_1"><path d="M374.88,135.06c-32.24-31.69-74.89-48.94-120.12-48.64c-92.82,0.66-168.34,77.42-168.34,171.1v158.06 c0,4.05,2.43,7.69,6.17,9.24c1.24,0.51,2.54,0.76,3.82,0.76c2.61,0,5.17-1.01,7.08-2.93l28.3-28.29c6.4-6.41,16.43-7.11,23.84-1.66 c29.25,21.51,63.96,32.88,100.37,32.88h0.1c45.44-0.02,88.18-17.96,120.34-50.5c32.18-32.55,49.63-75.51,49.13-120.98 C425.08,208.99,407.07,166.72,374.88,135.06z M335.93,233.41l-36.39,57.93c-5.91,9.41-18.33,12.25-27.74,6.34 c-0.64-0.41-1.25-0.84-1.84-1.3l-2.02-1.62l-37.44-29.89l-32.54,31.7c-5.62,5.47-14.6,5.35-20.07-0.26 c-4.62-4.75-5.24-11.91-1.94-17.31l35.56-58.16c5.79-9.46,18.14-12.43,27.6-6.65c0.69,0.42,1.34,0.87,1.96,1.36l2.16,1.73 l37.5,29.93l32.96-31.85c5.73-5.53,14.86-5.37,20.39,0.35C338.79,220.58,339.37,227.92,335.93,233.41z" fill="inherit"/></g></svg>